<svg width="27" height="24" viewBox="0 0 27 24" fill="none" xmlns="http://www.w3.org/2000/svg">
<path d="M13.3088 9L16.875 12.16V12C16.875 11.2044 16.5194 10.4413 15.8865 9.87868C15.2536 9.31607 14.3951 9 13.5 9H13.3088ZM8.47125 9.8L10.215 11.35C10.1587 11.56 10.125 11.77 10.125 12C10.125 12.7956 10.4806 13.5587 11.1135 14.1213C11.7464 14.6839 12.6049 15 13.5 15C13.7475 15 13.995 14.97 14.2312 14.92L15.975 16.47C15.2212 16.8 14.3888 17 13.5 17C12.0082 17 10.5774 16.4732 9.52252 15.5355C8.46763 14.5979 7.875 13.3261 7.875 12C7.875 11.21 8.1 10.47 8.47125 9.8ZM2.25 4.27L4.815 6.55L5.32125 7C3.465 8.3 2.0025 10 1.125 12C3.07125 16.39 7.875 19.5 13.5 19.5C15.2437 19.5 16.9087 19.2 18.4275 18.66L18.9112 19.08L22.1962 22L23.625 20.73L3.67875 3M13.5 7C14.9918 7 16.4226 7.52678 17.4775 8.46447C18.5324 9.40215 19.125 10.6739 19.125 12C19.125 12.64 18.9788 13.26 18.72 13.82L22.0163 16.75C23.7038 15.5 25.0537 13.86 25.875 12C23.9287 7.61 19.125 4.5 13.5 4.5C11.925 4.5 10.4175 4.75 9 5.2L11.4412 7.35C12.0825 7.13 12.7688 7 13.5 7Z" fill="white" fill-opacity="0.39"/>
</svg>
