<svg width="22" height="22" viewBox="0 0 22 22" fill="none" xmlns="http://www.w3.org/2000/svg">
<path d="M18.5624 11.1856C18.5659 11.0619 18.5659 10.9381 18.5624 10.8144L19.8446 9.21251C19.9118 9.1284 19.9584 9.02968 19.9805 8.9243C20.0026 8.81891 19.9996 8.70982 19.9718 8.60579C19.7612 7.81581 19.4468 7.05724 19.0368 6.34993C18.9831 6.25739 18.9085 6.17867 18.8189 6.12004C18.7294 6.06141 18.6275 6.02448 18.5212 6.0122L16.4827 5.78532C16.3979 5.69595 16.312 5.61001 16.2249 5.52751L15.9843 3.48391C15.9719 3.37753 15.9349 3.27552 15.8761 3.186C15.8173 3.09647 15.7384 3.02192 15.6457 2.96829C14.9384 2.55858 14.1798 2.24474 13.3898 2.03501C13.2858 2.00722 13.1767 2.00425 13.0713 2.02634C12.9659 2.04843 12.8672 2.09497 12.7831 2.1622L11.1855 3.43751H10.8143L9.21242 2.1579C9.12831 2.09067 9.02959 2.04413 8.92421 2.02204C8.81882 1.99995 8.70972 2.00292 8.6057 2.03071C7.81572 2.24128 7.05715 2.55569 6.34984 2.96571C6.2573 3.01944 6.17858 3.09404 6.11995 3.18355C6.06132 3.27307 6.02439 3.37504 6.0121 3.48134L5.78523 5.52321C5.69585 5.60858 5.60992 5.69451 5.52742 5.78102L3.48382 6.01563C3.37744 6.02801 3.27543 6.06507 3.1859 6.12385C3.09638 6.18264 3.02183 6.26153 2.9682 6.35423C2.55857 7.06163 2.24446 7.82018 2.03406 8.61009C2.00638 8.71418 2.00355 8.82332 2.02579 8.9287C2.04804 9.03409 2.09473 9.13277 2.1621 9.2168L3.43742 10.8144V11.1856L2.15781 12.7875C2.09058 12.8716 2.04404 12.9703 2.02195 13.0757C1.99986 13.1811 2.00283 13.2902 2.03062 13.3942C2.24119 14.1842 2.5556 14.9428 2.96562 15.6501C3.01935 15.7426 3.09395 15.8213 3.18346 15.88C3.27298 15.9386 3.37494 15.9755 3.48124 15.9878L5.51968 16.2147C5.60505 16.3041 5.69098 16.39 5.7775 16.4725L6.01554 18.5161C6.02792 18.6225 6.06498 18.7245 6.12376 18.814C6.18255 18.9035 6.26144 18.9781 6.35414 19.0317C7.06154 19.4414 7.82009 19.7555 8.60999 19.9659C8.71409 19.9935 8.82322 19.9964 8.92861 19.9741C9.034 19.9519 9.13268 19.9052 9.21671 19.8378L10.8143 18.5625C10.938 18.5659 11.0618 18.5659 11.1855 18.5625L12.7874 19.8447C12.8715 19.9119 12.9702 19.9585 13.0756 19.9806C13.181 20.0026 13.2901 19.9997 13.3941 19.9719C14.1842 19.7617 14.9429 19.4473 15.65 19.0369C15.7425 18.9831 15.8213 18.9086 15.8799 18.819C15.9385 18.7295 15.9754 18.6276 15.9877 18.5213L16.2146 16.4828C16.304 16.398 16.3899 16.3121 16.4724 16.225L18.516 15.9844C18.6224 15.972 18.7244 15.9349 18.8139 15.8762C18.9035 15.8174 18.978 15.7385 19.0316 15.6458C19.4413 14.9384 19.7554 14.1798 19.9658 13.3899C19.9935 13.2858 19.9963 13.1767 19.974 13.0713C19.9518 12.9659 19.9051 12.8672 19.8377 12.7832L18.5624 11.1856ZM10.9999 14.4375C10.32 14.4375 9.65544 14.2359 9.09014 13.8582C8.52485 13.4805 8.08426 12.9436 7.82408 12.3155C7.5639 11.6874 7.49583 10.9962 7.62847 10.3294C7.7611 9.66258 8.08849 9.05007 8.56924 8.56933C9.04998 8.08859 9.66248 7.7612 10.3293 7.62856C10.9961 7.49592 11.6873 7.564 12.3154 7.82417C12.9435 8.08435 13.4804 8.52494 13.8581 9.09024C14.2358 9.65553 14.4374 10.3201 14.4374 11C14.4374 11.9117 14.0753 12.786 13.4306 13.4307C12.7859 14.0753 11.9116 14.4375 10.9999 14.4375Z" fill="#ECECF1"/>
</svg>
