<svg width="38" height="38" viewBox="0 0 38 38" fill="none" xmlns="http://www.w3.org/2000/svg">
<path d="M15.0415 14.7646V23.2354C15.0415 23.8424 15.3186 24.3042 15.8728 24.6208C16.4269 24.9375 16.9679 24.9111 17.4957 24.5417L24.0665 20.3458C24.5679 20.0292 24.8186 19.5805 24.8186 19C24.8186 18.4194 24.5679 17.9708 24.0665 17.6542L17.4957 13.4583C16.9679 13.0889 16.4269 13.0625 15.8728 13.3792C15.3186 13.6958 15.0415 14.1576 15.0415 14.7646ZM18.9998 34.8333C16.8096 34.8333 14.7512 34.4174 12.8248 33.5857C10.8984 32.7539 9.22275 31.626 7.79775 30.2021C6.37275 28.7771 5.24489 27.1014 4.41417 25.175C3.58345 23.2486 3.16756 21.1903 3.1665 19C3.1665 16.8097 3.58239 14.7514 4.41417 12.825C5.24595 10.8986 6.37381 9.22291 7.79775 7.79791C9.22275 6.37291 10.8984 5.24505 12.8248 4.41432C14.7512 3.5836 16.8096 3.16771 18.9998 3.16666C21.1901 3.16666 23.2484 3.58255 25.1748 4.41432C27.1012 5.2461 28.7769 6.37396 30.2019 7.79791C31.6269 9.22291 32.7553 10.8986 33.5871 12.825C34.4189 14.7514 34.8342 16.8097 34.8332 19C34.8332 21.1903 34.4173 23.2486 33.5855 25.175C32.7537 27.1014 31.6259 28.7771 30.2019 30.2021C28.7769 31.6271 27.1012 32.7555 25.1748 33.5872C23.2484 34.419 21.1901 34.8344 18.9998 34.8333Z" fill="#35FF69"/>
</svg>
