<svg width="22" height="22" viewBox="0 0 22 22" fill="none" xmlns="http://www.w3.org/2000/svg">
<path d="M8.7085 8.54792V13.4521C8.7085 13.8035 8.86891 14.0708 9.18975 14.2542C9.51058 14.4375 9.82377 14.4222 10.1293 14.2083L13.9335 11.7792C14.2238 11.5958 14.3689 11.3361 14.3689 11C14.3689 10.6639 14.2238 10.4042 13.9335 10.2208L10.1293 7.79167C9.82377 7.57778 9.51058 7.5625 9.18975 7.74583C8.86891 7.92917 8.7085 8.19653 8.7085 8.54792ZM11.0002 20.1667C9.73211 20.1667 8.54044 19.9259 7.42516 19.4443C6.30989 18.9628 5.33975 18.3098 4.51475 17.4854C3.68975 16.6604 3.03677 15.6903 2.55583 14.575C2.07489 13.4597 1.83411 12.2681 1.8335 11C1.8335 9.73194 2.07427 8.54028 2.55583 7.425C3.03739 6.30972 3.69036 5.33958 4.51475 4.51458C5.33975 3.68958 6.30989 3.03661 7.42516 2.55567C8.54044 2.07472 9.73211 1.83394 11.0002 1.83333C12.2682 1.83333 13.4599 2.07411 14.5752 2.55567C15.6904 3.03722 16.6606 3.69019 17.4856 4.51458C18.3106 5.33958 18.9639 6.30972 19.4454 7.425C19.927 8.54028 20.1674 9.73194 20.1668 11C20.1668 12.2681 19.9261 13.4597 19.4445 14.575C18.9629 15.6903 18.31 16.6604 17.4856 17.4854C16.6606 18.3104 15.6904 18.9637 14.5752 19.4452C13.4599 19.9268 12.2682 20.1673 11.0002 20.1667Z" fill="#ABACA8"/>
</svg>
