<svg width="31" height="31" viewBox="0 0 31 31" fill="none" xmlns="http://www.w3.org/2000/svg">
<path d="M18.7934 21.3771L20.6018 19.5365L16.7913 15.7261V10.3333H14.208V16.7917L18.7934 21.3771ZM14.208 7.75001H16.7913V5.16668H14.208V7.75001ZM23.2497 16.7917H25.833V14.2083H23.2497V16.7917ZM14.208 25.8333H16.7913V23.25H14.208V25.8333ZM5.16634 16.7917H7.74967V14.2083H5.16634V16.7917ZM15.4997 28.4167C13.7129 28.4167 12.0337 28.0774 10.4622 27.3988C8.89065 26.7203 7.52363 25.8002 6.36113 24.6386C5.19863 23.4761 4.27854 22.109 3.60084 20.5375C2.92315 18.966 2.58387 17.2868 2.58301 15.5C2.58301 13.7132 2.92229 12.034 3.60084 10.4625C4.2794 8.89098 5.19949 7.52397 6.36113 6.36147C7.52363 5.19897 8.89065 4.27887 10.4622 3.60118C12.0337 2.92348 13.7129 2.5842 15.4997 2.58334C17.2865 2.58334 18.9656 2.92262 20.5372 3.60118C22.1087 4.27973 23.4757 5.19983 24.6382 6.36147C25.8007 7.52397 26.7212 8.89098 27.3998 10.4625C28.0784 12.034 28.4172 13.7132 28.4163 15.5C28.4163 17.2868 28.0771 18.966 27.3985 20.5375C26.72 22.109 25.7999 23.4761 24.6382 24.6386C23.4757 25.8011 22.1087 26.7216 20.5372 27.4001C18.9656 28.0787 17.2865 28.4175 15.4997 28.4167Z" fill="#E2E4E9"/>
</svg>
