<svg width="22" height="22" viewBox="0 0 22 22" fill="none" xmlns="http://www.w3.org/2000/svg">
<path d="M11.0002 17.6C8.7085 17.6 6.68266 16.4267 5.50016 14.6667C5.52766 12.8333 9.16683 11.825 11.0002 11.825C12.8335 11.825 16.4727 12.8333 16.5002 14.6667C15.8941 15.5691 15.0755 16.3086 14.1164 16.8201C13.1573 17.3316 12.0871 17.5994 11.0002 17.6ZM11.0002 4.58334C11.7295 4.58334 12.429 4.87307 12.9447 5.3888C13.4604 5.90452 13.7502 6.604 13.7502 7.33334C13.7502 8.06269 13.4604 8.76216 12.9447 9.27789C12.429 9.79361 11.7295 10.0833 11.0002 10.0833C10.2708 10.0833 9.57134 9.79361 9.05562 9.27789C8.53989 8.76216 8.25016 8.06269 8.25016 7.33334C8.25016 6.604 8.53989 5.90452 9.05562 5.3888C9.57134 4.87307 10.2708 4.58334 11.0002 4.58334ZM11.0002 1.83334C9.79638 1.83334 8.60438 2.07045 7.49223 2.53111C6.38008 2.99178 5.36955 3.66699 4.51835 4.5182C2.79927 6.23728 1.8335 8.56886 1.8335 11C1.8335 13.4312 2.79927 15.7627 4.51835 17.4818C5.36955 18.333 6.38008 19.0082 7.49223 19.4689C8.60438 19.9296 9.79638 20.1667 11.0002 20.1667C13.4313 20.1667 15.7629 19.2009 17.482 17.4818C19.2011 15.7627 20.1668 13.4312 20.1668 11C20.1668 5.93084 16.0418 1.83334 11.0002 1.83334Z" fill="#ECECF1"/>
</svg>
